<svg width="32" height="32" viewBox="0 0 32 32" fill="none" xmlns="http://www.w3.org/2000/svg">
<path fill-rule="evenodd" clip-rule="evenodd" d="M2.24533 2.24533C0 4.49067 0 8.1056 0 15.3333V16.6667C0 23.8933 0 27.5093 2.24533 29.7547C4.49066 32 8.10559 32 15.3333 32H15.3333H16.6667H16.6667C23.8933 32 27.5093 32 29.7547 29.7547C32 27.5093 32 23.8944 32 16.6667V16.6667V15.3333V15.3333C32 8.10666 32 4.49066 29.7547 2.24533C27.5093 0 23.8944 0 16.6667 0H15.3333C8.10667 0 4.49067 0 2.24533 2.24533ZM6.33385 10H8.66665C9.26292 10 9.48692 10.2613 9.71092 10.9077C10.8523 14.2315 12.7765 17.1371 13.5669 17.1371C13.8645 17.1371 14 17.0005 14 16.2464V12.8107C13.9466 11.8326 13.6049 11.4095 13.3518 11.0962C13.1955 10.9027 13.0731 10.7511 13.0731 10.5365C13.0731 10.2752 13.296 10 13.6661 10H17.3333C17.8283 10 18 10.2645 18 10.8576V15.4805C18 15.9744 18.2144 16.1483 18.3627 16.1483C18.6592 16.1483 18.9067 15.9744 19.4507 15.4304C21.1317 13.552 22.3179 10.6603 22.3179 10.6603C22.4661 10.3136 22.7403 10 23.3333 10H25.6661C26.3723 10 26.5216 10.3637 26.3723 10.8576C26.0757 12.2176 23.2331 16.2219 23.2331 16.2219C22.9856 16.6176 22.8864 16.8149 23.2331 17.2597C23.3554 17.4311 23.6164 17.6869 23.9148 17.9794C24.22 18.2786 24.5644 18.6161 24.8395 18.9408C25.8421 20.0683 26.5973 21.0197 26.8075 21.6747C27.0005 22.3328 26.6667 22.6667 26 22.6667H23.6661C23.0413 22.6667 22.7269 22.3167 22.0471 21.56C21.759 21.2393 21.4052 20.8456 20.9344 20.3744C19.5488 19.04 18.9568 18.8672 18.6101 18.8672C18.1408 18.8672 18 19.0005 18 19.6672V21.76C18 22.3328 17.8165 22.6667 16.3328 22.6667C13.8613 22.6667 11.1445 21.1659 9.21705 18.3968C6.32425 14.3435 5.53385 11.2779 5.53385 10.6603C5.53385 10.3136 5.66719 10 6.33385 10Z" fill="#F9B238"/>
</svg>
